<svg width="300" height="300" viewBox="0 0 300 300" fill="none" xmlns="http://www.w3.org/2000/svg">
<rect x="1.5" y="1.5" width="297" height="297" rx="8.5" fill="#FFECC3" stroke="#4D4637" stroke-width="3"/>
<g clip-path="url(#clip0_403_41)">
<path d="M182.814 178.464H243.394V168.367H182.814V178.464Z" fill="black"/>
<path d="M153.534 178.464H173.727V168.367H153.534V178.464Z" fill="black"/>
<path d="M138.389 178.464H144.447V168.367H138.389V178.464Z" fill="black"/>
<path opacity="0.75" d="M123.244 178.464H129.302V168.367H123.244V178.464Z" fill="black"/>
<path opacity="0.5" d="M108.099 178.464H114.157V168.367H108.099V178.464Z" fill="black"/>
<path opacity="0.25" d="M92.9538 178.464H99.0118V168.367H92.9538V178.464Z" fill="black"/>
<path opacity="0.01" d="M77.8088 178.464H83.8668V168.367H77.8088V178.464Z" fill="black"/>
<path d="M56.2488 173.059C56.0517 173.256 56.0517 173.575 56.2488 173.773L59.4615 176.985C59.6587 177.183 59.9784 177.183 60.1755 176.985C60.3727 176.788 60.3727 176.469 60.1755 176.271L57.3197 173.416L60.1755 170.56C60.3727 170.363 60.3727 170.043 60.1755 169.846C59.9784 169.649 59.6587 169.649 59.4615 169.846L56.2488 173.059ZM68.7218 172.911H56.6058V173.921H68.7218V172.911Z" fill="black"/>
<path d="M243.751 135.405C243.948 135.208 243.948 134.889 243.751 134.691L240.538 131.479C240.341 131.282 240.022 131.282 239.824 131.479C239.627 131.676 239.627 131.995 239.824 132.193L242.68 135.048L239.824 137.904C239.627 138.101 239.627 138.421 239.824 138.618C240.022 138.815 240.341 138.815 240.538 138.618L243.751 135.405ZM231.278 135.553H243.394V134.544H231.278V135.553Z" fill="black"/>
<path opacity="0.01" d="M216.133 140.097H222.191V130H216.133V140.097Z" fill="black"/>
<path opacity="0.25" d="M200.988 140.097H207.046V130H200.988V140.097Z" fill="black"/>
<path opacity="0.5" d="M185.843 140.097H191.901V130H185.843V140.097Z" fill="black"/>
<path opacity="0.75" d="M170.698 140.097H176.756V130H170.698V140.097Z" fill="black"/>
<path d="M155.553 140.097H161.611V130H155.553V140.097Z" fill="black"/>
<path d="M126.273 140.097H146.466V130H126.273V140.097Z" fill="black"/>
<path d="M56.6058 140.097H117.186V130H56.6058V140.097Z" fill="black"/>
</g>
<defs>
<clipPath id="clip0_403_41">
<rect width="188" height="48.464" fill="white" transform="translate(56 130)"/>
</clipPath>
</defs>
</svg>
